<?xml version="1.0" encoding="UTF-8"?>
<svg xmlns="http://www.w3.org/2000/svg" width="600" height="420" viewBox="0 0 600 420">
  <rect width="600" height="420" fill="#0B1220"/>
  <g fill="#E9F0FA">
        <rect x="18" y="70" width="60" height="12"/>
    <rect x="18" y="82" width="12" height="12"/>
    <rect x="18" y="94" width="12" height="12"/>
    <rect x="18" y="106" width="48" height="12"/>
    <rect x="18" y="118" width="12" height="12"/>
    <rect x="18" y="130" width="12" height="12"/>
    <rect x="18" y="142" width="12" height="12"/>
    <rect x="102" y="70" width="36" height="12"/>
    <rect x="90" y="82" width="12" height="12"/>
    <rect x="138" y="82" width="12" height="12"/>
    <rect x="90" y="94" width="12" height="12"/>
    <rect x="138" y="94" width="12" height="12"/>
    <rect x="90" y="106" width="12" height="12"/>
    <rect x="138" y="106" width="12" height="12"/>
    <rect x="90" y="118" width="12" height="12"/>
    <rect x="138" y="118" width="12" height="12"/>
    <rect x="90" y="130" width="12" height="12"/>
    <rect x="138" y="130" width="12" height="12"/>
    <rect x="102" y="142" width="36" height="12"/>
    <rect x="174" y="70" width="36" height="12"/>
    <rect x="162" y="82" width="12" height="12"/>
    <rect x="210" y="82" width="12" height="12"/>
    <rect x="162" y="94" width="12" height="12"/>
    <rect x="210" y="94" width="12" height="12"/>
    <rect x="162" y="106" width="12" height="12"/>
    <rect x="210" y="106" width="12" height="12"/>
    <rect x="162" y="118" width="12" height="12"/>
    <rect x="210" y="118" width="12" height="12"/>
    <rect x="162" y="130" width="12" height="12"/>
    <rect x="210" y="130" width="12" height="12"/>
    <rect x="174" y="142" width="36" height="12"/>
    <rect x="234" y="70" width="60" height="12"/>
    <rect x="258" y="82" width="12" height="12"/>
    <rect x="258" y="94" width="12" height="12"/>
    <rect x="258" y="106" width="12" height="12"/>
    <rect x="258" y="118" width="12" height="12"/>
    <rect x="258" y="130" width="12" height="12"/>
    <rect x="258" y="142" width="12" height="12"/>
    <rect x="306" y="70" width="48" height="12"/>
    <rect x="306" y="82" width="12" height="12"/>
    <rect x="354" y="82" width="12" height="12"/>
    <rect x="306" y="94" width="12" height="12"/>
    <rect x="354" y="94" width="12" height="12"/>
    <rect x="306" y="106" width="48" height="12"/>
    <rect x="306" y="118" width="12" height="12"/>
    <rect x="354" y="118" width="12" height="12"/>
    <rect x="306" y="130" width="12" height="12"/>
    <rect x="354" y="130" width="12" height="12"/>
    <rect x="306" y="142" width="48" height="12"/>
    <rect x="390" y="70" width="36" height="12"/>
    <rect x="378" y="82" width="12" height="12"/>
    <rect x="426" y="82" width="12" height="12"/>
    <rect x="378" y="94" width="12" height="12"/>
    <rect x="426" y="94" width="12" height="12"/>
    <rect x="378" y="106" width="60" height="12"/>
    <rect x="378" y="118" width="12" height="12"/>
    <rect x="426" y="118" width="12" height="12"/>
    <rect x="378" y="130" width="12" height="12"/>
    <rect x="426" y="130" width="12" height="12"/>
    <rect x="378" y="142" width="12" height="12"/>
    <rect x="426" y="142" width="12" height="12"/>
    <rect x="450" y="70" width="12" height="12"/>
    <rect x="450" y="82" width="12" height="12"/>
    <rect x="450" y="94" width="12" height="12"/>
    <rect x="450" y="106" width="12" height="12"/>
    <rect x="450" y="118" width="12" height="12"/>
    <rect x="450" y="130" width="12" height="12"/>
    <rect x="450" y="142" width="60" height="12"/>
    <rect x="522" y="70" width="12" height="12"/>
    <rect x="522" y="82" width="12" height="12"/>
    <rect x="522" y="94" width="12" height="12"/>
    <rect x="522" y="106" width="12" height="12"/>
    <rect x="522" y="118" width="12" height="12"/>
    <rect x="522" y="130" width="12" height="12"/>
    <rect x="522" y="142" width="60" height="12"/>
    <rect x="54" y="180" width="12" height="12"/>
    <rect x="102" y="180" width="12" height="12"/>
    <rect x="54" y="192" width="24" height="12"/>
    <rect x="90" y="192" width="24" height="12"/>
    <rect x="54" y="204" width="12" height="12"/>
    <rect x="78" y="204" width="12" height="12"/>
    <rect x="102" y="204" width="12" height="12"/>
    <rect x="54" y="216" width="12" height="12"/>
    <rect x="102" y="216" width="12" height="12"/>
    <rect x="54" y="228" width="12" height="12"/>
    <rect x="102" y="228" width="12" height="12"/>
    <rect x="54" y="240" width="12" height="12"/>
    <rect x="102" y="240" width="12" height="12"/>
    <rect x="54" y="252" width="12" height="12"/>
    <rect x="102" y="252" width="12" height="12"/>
    <rect x="138" y="180" width="36" height="12"/>
    <rect x="126" y="192" width="12" height="12"/>
    <rect x="174" y="192" width="12" height="12"/>
    <rect x="126" y="204" width="12" height="12"/>
    <rect x="174" y="204" width="12" height="12"/>
    <rect x="126" y="216" width="60" height="12"/>
    <rect x="126" y="228" width="12" height="12"/>
    <rect x="174" y="228" width="12" height="12"/>
    <rect x="126" y="240" width="12" height="12"/>
    <rect x="174" y="240" width="12" height="12"/>
    <rect x="126" y="252" width="12" height="12"/>
    <rect x="174" y="252" width="12" height="12"/>
    <rect x="198" y="180" width="12" height="12"/>
    <rect x="246" y="180" width="12" height="12"/>
    <rect x="198" y="192" width="24" height="12"/>
    <rect x="246" y="192" width="12" height="12"/>
    <rect x="198" y="204" width="12" height="12"/>
    <rect x="222" y="204" width="12" height="12"/>
    <rect x="246" y="204" width="12" height="12"/>
    <rect x="198" y="216" width="12" height="12"/>
    <rect x="234" y="216" width="24" height="12"/>
    <rect x="198" y="228" width="12" height="12"/>
    <rect x="246" y="228" width="12" height="12"/>
    <rect x="198" y="240" width="12" height="12"/>
    <rect x="246" y="240" width="12" height="12"/>
    <rect x="198" y="252" width="12" height="12"/>
    <rect x="246" y="252" width="12" height="12"/>
    <rect x="282" y="180" width="36" height="12"/>
    <rect x="270" y="192" width="12" height="12"/>
    <rect x="318" y="192" width="12" height="12"/>
    <rect x="270" y="204" width="12" height="12"/>
    <rect x="318" y="204" width="12" height="12"/>
    <rect x="270" y="216" width="60" height="12"/>
    <rect x="270" y="228" width="12" height="12"/>
    <rect x="318" y="228" width="12" height="12"/>
    <rect x="270" y="240" width="12" height="12"/>
    <rect x="318" y="240" width="12" height="12"/>
    <rect x="270" y="252" width="12" height="12"/>
    <rect x="318" y="252" width="12" height="12"/>
    <rect x="354" y="180" width="36" height="12"/>
    <rect x="342" y="192" width="12" height="12"/>
    <rect x="390" y="192" width="12" height="12"/>
    <rect x="342" y="204" width="12" height="12"/>
    <rect x="342" y="216" width="12" height="12"/>
    <rect x="366" y="216" width="36" height="12"/>
    <rect x="342" y="228" width="12" height="12"/>
    <rect x="390" y="228" width="12" height="12"/>
    <rect x="342" y="240" width="12" height="12"/>
    <rect x="390" y="240" width="12" height="12"/>
    <rect x="354" y="252" width="36" height="12"/>
    <rect x="414" y="180" width="60" height="12"/>
    <rect x="414" y="192" width="12" height="12"/>
    <rect x="414" y="204" width="12" height="12"/>
    <rect x="414" y="216" width="48" height="12"/>
    <rect x="414" y="228" width="12" height="12"/>
    <rect x="414" y="240" width="12" height="12"/>
    <rect x="414" y="252" width="60" height="12"/>
    <rect x="486" y="180" width="48" height="12"/>
    <rect x="486" y="192" width="12" height="12"/>
    <rect x="534" y="192" width="12" height="12"/>
    <rect x="486" y="204" width="12" height="12"/>
    <rect x="534" y="204" width="12" height="12"/>
    <rect x="486" y="216" width="48" height="12"/>
    <rect x="486" y="228" width="12" height="12"/>
    <rect x="510" y="228" width="12" height="12"/>
    <rect x="486" y="240" width="12" height="12"/>
    <rect x="522" y="240" width="12" height="12"/>
    <rect x="486" y="252" width="12" height="12"/>
    <rect x="534" y="252" width="12" height="12"/>
  </g>
  <g fill="#3A8CE8">
        <rect x="170" y="314" width="20" height="4"/>
    <rect x="170" y="318" width="4" height="4"/>
    <rect x="170" y="322" width="4" height="4"/>
    <rect x="170" y="326" width="16" height="4"/>
    <rect x="170" y="330" width="4" height="4"/>
    <rect x="170" y="334" width="4" height="4"/>
    <rect x="170" y="338" width="20" height="4"/>
    <rect x="194" y="314" width="4" height="4"/>
    <rect x="210" y="314" width="4" height="4"/>
    <rect x="194" y="318" width="8" height="4"/>
    <rect x="210" y="318" width="4" height="4"/>
    <rect x="194" y="322" width="4" height="4"/>
    <rect x="202" y="322" width="4" height="4"/>
    <rect x="210" y="322" width="4" height="4"/>
    <rect x="194" y="326" width="4" height="4"/>
    <rect x="206" y="326" width="8" height="4"/>
    <rect x="194" y="330" width="4" height="4"/>
    <rect x="210" y="330" width="4" height="4"/>
    <rect x="194" y="334" width="4" height="4"/>
    <rect x="210" y="334" width="4" height="4"/>
    <rect x="194" y="338" width="4" height="4"/>
    <rect x="210" y="338" width="4" height="4"/>
    <rect x="222" y="314" width="12" height="4"/>
    <rect x="218" y="318" width="4" height="4"/>
    <rect x="234" y="318" width="4" height="4"/>
    <rect x="218" y="322" width="4" height="4"/>
    <rect x="218" y="326" width="4" height="4"/>
    <rect x="226" y="326" width="12" height="4"/>
    <rect x="218" y="330" width="4" height="4"/>
    <rect x="234" y="330" width="4" height="4"/>
    <rect x="218" y="334" width="4" height="4"/>
    <rect x="234" y="334" width="4" height="4"/>
    <rect x="222" y="338" width="12" height="4"/>
    <rect x="242" y="314" width="20" height="4"/>
    <rect x="250" y="318" width="4" height="4"/>
    <rect x="250" y="322" width="4" height="4"/>
    <rect x="250" y="326" width="4" height="4"/>
    <rect x="250" y="330" width="4" height="4"/>
    <rect x="250" y="334" width="4" height="4"/>
    <rect x="242" y="338" width="20" height="4"/>
    <rect x="266" y="314" width="4" height="4"/>
    <rect x="282" y="314" width="4" height="4"/>
    <rect x="266" y="318" width="8" height="4"/>
    <rect x="282" y="318" width="4" height="4"/>
    <rect x="266" y="322" width="4" height="4"/>
    <rect x="274" y="322" width="4" height="4"/>
    <rect x="282" y="322" width="4" height="4"/>
    <rect x="266" y="326" width="4" height="4"/>
    <rect x="278" y="326" width="8" height="4"/>
    <rect x="266" y="330" width="4" height="4"/>
    <rect x="282" y="330" width="4" height="4"/>
    <rect x="266" y="334" width="4" height="4"/>
    <rect x="282" y="334" width="4" height="4"/>
    <rect x="266" y="338" width="4" height="4"/>
    <rect x="282" y="338" width="4" height="4"/>
    <rect x="290" y="314" width="20" height="4"/>
    <rect x="290" y="318" width="4" height="4"/>
    <rect x="290" y="322" width="4" height="4"/>
    <rect x="290" y="326" width="16" height="4"/>
    <rect x="290" y="330" width="4" height="4"/>
    <rect x="290" y="334" width="4" height="4"/>
    <rect x="290" y="338" width="20" height="4"/>
    <rect x="338" y="314" width="16" height="4"/>
    <rect x="338" y="318" width="4" height="4"/>
    <rect x="354" y="318" width="4" height="4"/>
    <rect x="338" y="322" width="4" height="4"/>
    <rect x="354" y="322" width="4" height="4"/>
    <rect x="338" y="326" width="4" height="4"/>
    <rect x="354" y="326" width="4" height="4"/>
    <rect x="338" y="330" width="4" height="4"/>
    <rect x="354" y="330" width="4" height="4"/>
    <rect x="338" y="334" width="4" height="4"/>
    <rect x="354" y="334" width="4" height="4"/>
    <rect x="338" y="338" width="16" height="4"/>
    <rect x="362" y="314" width="20" height="4"/>
    <rect x="362" y="318" width="4" height="4"/>
    <rect x="362" y="322" width="4" height="4"/>
    <rect x="362" y="326" width="16" height="4"/>
    <rect x="362" y="330" width="4" height="4"/>
    <rect x="362" y="334" width="4" height="4"/>
    <rect x="362" y="338" width="20" height="4"/>
    <rect x="386" y="314" width="4" height="4"/>
    <rect x="402" y="314" width="4" height="4"/>
    <rect x="386" y="318" width="8" height="4"/>
    <rect x="398" y="318" width="8" height="4"/>
    <rect x="386" y="322" width="4" height="4"/>
    <rect x="394" y="322" width="4" height="4"/>
    <rect x="402" y="322" width="4" height="4"/>
    <rect x="386" y="326" width="4" height="4"/>
    <rect x="402" y="326" width="4" height="4"/>
    <rect x="386" y="330" width="4" height="4"/>
    <rect x="402" y="330" width="4" height="4"/>
    <rect x="386" y="334" width="4" height="4"/>
    <rect x="402" y="334" width="4" height="4"/>
    <rect x="386" y="338" width="4" height="4"/>
    <rect x="402" y="338" width="4" height="4"/>
    <rect x="414" y="314" width="12" height="4"/>
    <rect x="410" y="318" width="4" height="4"/>
    <rect x="426" y="318" width="4" height="4"/>
    <rect x="410" y="322" width="4" height="4"/>
    <rect x="426" y="322" width="4" height="4"/>
    <rect x="410" y="326" width="4" height="4"/>
    <rect x="426" y="326" width="4" height="4"/>
    <rect x="410" y="330" width="4" height="4"/>
    <rect x="426" y="330" width="4" height="4"/>
    <rect x="410" y="334" width="4" height="4"/>
    <rect x="426" y="334" width="4" height="4"/>
    <rect x="414" y="338" width="12" height="4"/>
  </g>
  <rect x="54" y="288" width="492" height="4" fill="#3A8CE8"/>
</svg>
